<svg width="219" height="40" viewBox="0 0 219 40" fill="none" xmlns="http://www.w3.org/2000/svg">
<path d="M9.06691 31.2738C9.45729 31.3085 9.9102 31.334 10.426 31.351C10.9403 31.3688 11.5533 31.3769 12.2645 31.3769C16.4212 31.3769 19.503 30.3639 21.5105 28.3366C23.5171 26.3098 24.5216 23.5106 24.5216 19.9371C24.5216 16.1932 23.5622 13.3592 21.6437 11.4348C19.7252 9.51145 16.6876 8.5494 12.531 8.5494C11.9623 8.5494 11.3758 8.55829 10.7721 8.5749C10.1677 8.59268 9.59984 8.63556 9.06691 8.70395V31.2738ZM33.1014 19.9371C33.1014 23.0291 32.6034 25.7263 31.6094 28.0271C30.6142 30.3291 29.2019 32.2358 27.3727 33.7473C25.5424 35.2591 23.3132 36.3931 20.6842 37.148C18.0549 37.9034 15.1063 38.2816 11.838 38.2816C10.346 38.2816 8.60467 38.2213 6.61549 38.1016C4.62553 37.9806 2.67209 37.7326 0.753601 37.3543V2.57197C2.67209 2.22888 4.6702 1.99707 6.74872 1.87614C8.82724 1.75598 10.6125 1.6957 12.1045 1.6957C15.2663 1.6957 18.1349 2.03957 20.7111 2.72652C23.2864 3.41386 25.4981 4.49606 27.3459 5.97274C29.1929 7.4502 30.6142 9.3399 31.6094 11.6411C32.6034 13.943 33.1014 16.7086 33.1014 19.9371Z" fill="#1A5DEF"/>
<path d="M57.0829 23.6749C57.2006 23.6853 57.3374 23.693 57.4923 23.6981C57.6477 23.7035 57.8322 23.7062 58.0466 23.7062C59.2993 23.7062 60.2281 23.4006 60.8329 22.7897C61.4377 22.1789 61.7407 21.3354 61.7407 20.2583C61.7407 19.1301 61.4513 18.2758 60.8733 17.6963C60.2949 17.1164 59.3797 16.8266 58.127 16.8266C57.9554 16.8266 57.779 16.8293 57.5968 16.8343C57.4147 16.8393 57.2434 16.8525 57.0829 16.873V23.6749ZM64.3261 20.2583C64.3261 21.1902 64.1762 22.0031 63.8767 22.6966C63.5768 23.3901 63.1511 23.965 62.5999 24.4202C62.0483 24.8761 61.3763 25.2176 60.5843 25.4452C59.7915 25.6728 58.9031 25.7867 57.9181 25.7867C57.4683 25.7867 56.9435 25.7686 56.3441 25.7327C55.7444 25.6963 55.1555 25.6214 54.5775 25.5074V15.025C55.1555 14.9218 55.758 14.8515 56.3841 14.8156C57.0107 14.7792 57.5487 14.7611 57.9985 14.7611C58.9513 14.7611 59.8156 14.8646 60.5921 15.0717C61.3682 15.2788 62.0347 15.6049 62.5917 16.05C63.1484 16.4951 63.5768 17.0646 63.8767 17.7581C64.1762 18.452 64.3261 19.2854 64.3261 20.2583Z" fill="#1A5DEF"/>
<path d="M70.9338 17.3234C70.8779 17.4795 70.7959 17.6924 70.6883 17.9613C70.5807 18.2302 70.4584 18.5412 70.3209 18.8936C70.1834 19.2463 70.0296 19.6346 69.8594 20.0585C69.6897 20.4823 69.5168 20.927 69.3416 21.3922H72.5245C72.354 20.9255 72.1889 20.4796 72.0296 20.0542C71.87 19.6292 71.7181 19.2402 71.5744 18.8874C71.4306 18.5347 71.3048 18.2244 71.1964 17.9555C71.088 17.687 71.0003 17.4764 70.9338 17.3234ZM73.9438 25.6472C73.8199 25.2732 73.6871 24.8892 73.5445 24.4951C73.402 24.101 73.2598 23.7084 73.1184 23.3178H68.7718C68.6312 23.7104 68.4902 24.1037 68.3492 24.4982C68.2078 24.8926 68.0761 25.2759 67.9545 25.6472H65.3528C65.7715 24.4877 66.1689 23.4164 66.5449 22.4327C66.9205 21.449 67.2884 20.5225 67.6481 19.6528C68.0081 18.7831 68.3624 17.9574 68.7116 17.1758C69.0604 16.3942 69.4232 15.6307 69.7992 14.8851H72.1741C72.5396 15.6307 72.9001 16.3942 73.2551 17.1758C73.6098 17.9574 73.9679 18.7831 74.328 19.6528C74.6885 20.5225 75.0567 21.449 75.4335 22.4327C75.8099 23.4164 76.2076 24.4877 76.6271 25.6472H73.9438Z" fill="#1A5DEF"/>
<path d="M85.7171 14.8854V16.9509H82.3606V25.6476H79.8548V16.9509H76.4984V14.8854H85.7171Z" fill="#1A5DEF"/>
<path d="M90.8485 17.3235C90.7926 17.4796 90.7106 17.6925 90.603 17.9614C90.4954 18.2303 90.3731 18.5413 90.2356 18.8937C90.098 19.2465 89.9442 19.6348 89.7741 20.0586C89.6043 20.4824 89.4319 20.9271 89.2563 21.3923H92.4391C92.2686 20.9256 92.1035 20.4797 91.9443 20.0543C91.7846 19.6293 91.6328 19.2403 91.489 18.8875C91.3453 18.5348 91.2195 18.2245 91.1111 17.9556C91.0027 17.6871 90.9149 17.4765 90.8485 17.3235ZM93.8585 25.6473C93.7346 25.2733 93.6017 24.8893 93.4592 24.4952C93.3166 24.1011 93.1745 23.7086 93.0331 23.318H88.6865C88.5459 23.7105 88.4049 24.1038 88.2639 24.4983C88.1225 24.8928 87.9912 25.276 87.8692 25.6473H85.2675C85.6862 24.4879 86.0836 23.4165 86.4596 22.4328C86.8352 21.4491 87.203 20.5226 87.5627 19.6529C87.9228 18.7832 88.2771 17.9575 88.6263 17.1759C88.9751 16.3943 89.3379 15.6309 89.7139 14.8852H92.0888C92.4543 15.6309 92.8148 16.3943 93.1698 17.1759C93.5244 17.9575 93.8826 18.7832 94.2427 19.6529C94.6031 20.5226 94.9714 21.4491 95.3481 22.4328C95.7245 23.4165 96.1223 24.4879 96.5418 25.6473H93.8585Z" fill="#1A5DEF"/>
<path d="M108.539 20.2585C108.539 21.18 108.397 21.9902 108.114 22.6887C107.83 23.3876 107.442 23.9726 106.95 24.4436C106.457 24.9149 105.871 25.2692 105.191 25.5076C104.511 25.7456 103.78 25.8646 102.999 25.8646C102.238 25.8646 101.521 25.7456 100.846 25.5076C100.172 25.2692 99.5829 24.9149 99.0799 24.4436C98.5765 23.9726 98.1803 23.3876 97.8913 22.6887C97.6023 21.9902 97.4578 21.18 97.4578 20.2585C97.4578 19.337 97.6077 18.5268 97.9076 17.8283C98.2071 17.1293 98.6114 16.5417 99.1199 16.0657C99.6283 15.5893 100.217 15.2323 100.886 14.9939C101.556 14.7559 102.26 14.6369 102.999 14.6369C103.759 14.6369 104.476 14.7559 105.151 14.9939C105.825 15.2323 106.414 15.5893 106.917 16.0657C107.42 16.5417 107.817 17.1293 108.106 17.8283C108.395 18.5268 108.539 19.337 108.539 20.2585Z" fill="#012583"/>
<path d="M113.614 20.9574V23.7373C113.796 23.7582 113.994 23.7736 114.208 23.7837C114.422 23.7941 114.658 23.7991 114.915 23.7991C115.664 23.7991 116.269 23.696 116.73 23.4885C117.19 23.2818 117.42 22.8985 117.42 22.3395C117.42 21.8426 117.228 21.4883 116.842 21.2758C116.457 21.0637 115.905 20.9574 115.188 20.9574H113.614ZM113.614 19.1095H114.835C115.606 19.1095 116.157 19.014 116.489 18.822C116.821 18.6308 116.987 18.3228 116.987 17.8982C116.987 17.4632 116.816 17.1579 116.473 16.9818C116.13 16.806 115.627 16.7179 114.963 16.7179C114.749 16.7179 114.519 16.7206 114.272 16.7256C114.026 16.731 113.807 16.7438 113.614 16.7646V19.1095ZM114.883 25.787C114.272 25.787 113.665 25.7688 113.06 25.7329C112.455 25.6962 111.826 25.6112 111.173 25.4764V15.0407C111.687 14.9476 112.249 14.8776 112.859 14.8309C113.47 14.7845 114.037 14.7609 114.562 14.7609C115.268 14.7609 115.919 14.8104 116.513 14.9085C117.107 15.0071 117.618 15.1755 118.047 15.4135C118.475 15.6515 118.81 15.9649 119.051 16.3532C119.291 16.7411 119.412 17.2201 119.412 17.7893C119.412 18.6489 118.984 19.327 118.127 19.8239C118.834 20.0827 119.316 20.4347 119.573 20.8798C119.829 21.3249 119.958 21.8271 119.958 22.3862C119.958 23.5148 119.532 24.3636 118.681 24.9331C117.83 25.5022 116.564 25.787 114.883 25.787Z" fill="#012583"/>
<path d="M125.547 23.7992C125.9 23.7992 126.192 23.771 126.422 23.7139C126.652 23.6571 126.837 23.5794 126.976 23.4809C127.115 23.3827 127.212 23.2661 127.265 23.1316C127.319 22.9972 127.346 22.8469 127.346 22.6811C127.346 22.3295 127.174 22.0367 126.832 21.8037C126.489 21.5707 125.9 21.32 125.065 21.0507C124.701 20.9262 124.337 20.7841 123.973 20.6233C123.609 20.463 123.282 20.2613 122.993 20.0179C122.704 19.7749 122.468 19.4797 122.287 19.1328C122.104 18.7858 122.014 18.3639 122.014 17.867C122.014 17.3702 122.11 16.9224 122.303 16.5236C122.495 16.1253 122.768 15.7861 123.122 15.5067C123.475 15.227 123.903 15.0122 124.407 14.8623C124.91 14.712 125.477 14.637 126.109 14.637C126.858 14.637 127.506 14.7147 128.052 14.87C128.598 15.0249 129.048 15.1961 129.401 15.3823L128.679 17.2925C128.368 17.1372 128.023 17 127.643 16.881C127.263 16.762 126.805 16.7021 126.27 16.7021C125.67 16.7021 125.239 16.7825 124.977 16.9432C124.714 17.1036 124.583 17.3497 124.583 17.6808C124.583 17.8775 124.631 18.0432 124.728 18.1777C124.824 18.3125 124.961 18.4338 125.137 18.5424C125.314 18.6513 125.517 18.7499 125.748 18.8376C125.978 18.9257 126.232 19.0161 126.511 19.1096C127.088 19.3167 127.592 19.521 128.02 19.7227C128.448 19.9248 128.804 20.1605 129.088 20.4294C129.372 20.6987 129.583 21.0143 129.722 21.3767C129.862 21.7392 129.931 22.1792 129.931 22.697C129.931 23.7011 129.567 24.48 128.839 25.0337C128.111 25.5877 127.014 25.8647 125.547 25.8647C125.054 25.8647 124.61 25.8362 124.214 25.7794C123.817 25.7222 123.467 25.6522 123.162 25.5696C122.856 25.4869 122.594 25.3988 122.375 25.3057C122.155 25.2126 121.97 25.1245 121.821 25.0418L122.527 23.1162C122.859 23.292 123.269 23.45 123.756 23.5898C124.243 23.7293 124.84 23.7992 125.547 23.7992Z" fill="#012583"/>
<path d="M132.404 25.6472V14.8851H139.92V16.9197H134.909V19.0315H139.358V21.0194H134.909V23.6126H140.29V25.6472H132.404Z" fill="#012583"/>
<path d="M146.087 16.8267C145.905 16.8267 145.742 16.8321 145.597 16.8421C145.453 16.8525 145.316 16.863 145.188 16.8734V19.7928H145.894C146.836 19.7928 147.511 19.6788 147.918 19.4512C148.325 19.2237 148.528 18.8354 148.528 18.2863C148.528 17.7586 148.322 17.3834 147.91 17.1605C147.498 16.9379 146.89 16.8267 146.087 16.8267ZM145.942 14.7612C147.613 14.7612 148.892 15.0486 149.781 15.6231C150.669 16.1977 151.114 17.0905 151.114 18.3018C151.114 19.0579 150.935 19.6711 150.576 20.142C150.217 20.6134 149.701 20.9835 149.026 21.2525C149.251 21.5221 149.486 21.8301 149.733 22.1766C149.979 22.5236 150.223 22.886 150.463 23.2635C150.705 23.6417 150.937 24.035 151.162 24.4438C151.387 24.853 151.596 25.254 151.788 25.6473H148.988C148.783 25.2954 148.576 24.9384 148.367 24.576C148.157 24.2135 147.943 23.8616 147.722 23.52C147.502 23.1781 147.284 22.8547 147.069 22.5495C146.854 22.2439 146.639 21.9668 146.424 21.7184H145.188V25.6473H142.682V15.0409C143.228 14.9373 143.793 14.8647 144.377 14.8234C144.96 14.782 145.482 14.7612 145.942 14.7612Z" fill="#012583"/>
<path d="M157.268 25.6472C156.824 24.7431 156.387 23.8054 155.957 22.8329C155.525 21.8609 155.116 20.8992 154.728 19.9472C154.341 18.996 153.984 18.0849 153.659 17.2148C153.333 16.3447 153.053 15.5685 152.816 14.8851H155.579C155.787 15.5083 156.019 16.1794 156.274 16.8976C156.528 17.6159 156.789 18.3322 157.053 19.0454C157.317 19.759 157.571 20.4425 157.813 21.0962C158.056 21.75 158.288 22.3144 158.51 22.7897C158.719 22.3175 158.948 21.7546 159.195 21.1009C159.443 20.4475 159.7 19.7641 159.964 19.0501C160.229 18.3368 160.488 17.6209 160.743 16.9023C160.998 16.184 161.23 15.5117 161.439 14.8851H164.107C163.857 15.5716 163.57 16.349 163.246 17.2172C162.922 18.0857 162.567 18.9964 162.181 19.9487C161.796 20.9011 161.389 21.8639 160.961 22.8372C160.533 23.8104 160.098 24.747 159.657 25.6472H157.268Z" fill="#012583"/>
<path d="M184.021 14.8854V16.9509H180.664V25.6476H178.159V16.9509H174.802V14.8854H184.021Z" fill="#012583"/>
<path d="M187.812 20.2585C187.812 20.7866 187.879 21.263 188.013 21.6873C188.146 22.1119 188.339 22.4766 188.591 22.7822C188.842 23.0874 189.15 23.3231 189.514 23.4885C189.878 23.6542 190.295 23.7373 190.767 23.7373C191.227 23.7373 191.642 23.6542 192.012 23.4885C192.381 23.3231 192.691 23.0874 192.943 22.7822C193.194 22.4766 193.387 22.1119 193.521 21.6873C193.655 21.263 193.722 20.7866 193.722 20.2585C193.722 19.7303 193.655 19.252 193.521 18.822C193.387 18.3927 193.194 18.0249 192.943 17.7193C192.691 17.4141 192.381 17.1784 192.012 17.013C191.642 16.8473 191.227 16.7646 190.767 16.7646C190.295 16.7646 189.878 16.85 189.514 17.0208C189.15 17.1915 188.842 17.4295 188.591 17.7352C188.339 18.0404 188.146 18.4082 188.013 18.8374C187.879 19.2671 187.812 19.7412 187.812 20.2585ZM196.308 20.2585C196.308 21.18 196.166 21.9902 195.882 22.6887C195.598 23.3876 195.21 23.9726 194.718 24.4436C194.225 24.9149 193.639 25.2692 192.959 25.5076C192.279 25.7456 191.548 25.8646 190.767 25.8646C190.006 25.8646 189.289 25.7456 188.615 25.5076C187.94 25.2692 187.351 24.9149 186.848 24.4436C186.345 23.9726 185.949 23.3876 185.659 22.6887C185.37 21.9902 185.226 21.18 185.226 20.2585C185.226 19.337 185.376 18.5268 185.676 17.8283C185.975 17.1293 186.38 16.5417 186.888 16.0657C187.397 15.5893 187.986 15.2323 188.655 14.9939C189.324 14.7559 190.028 14.6369 190.767 14.6369C191.527 14.6369 192.245 14.7559 192.919 14.9939C193.594 15.2323 194.182 15.5893 194.686 16.0657C195.189 16.5417 195.585 17.1293 195.874 17.8283C196.163 18.5268 196.308 19.337 196.308 20.2585Z" fill="#012583"/>
<path d="M202.008 16.8267C201.826 16.8267 201.663 16.8321 201.518 16.8421C201.374 16.8525 201.237 16.863 201.109 16.8734V19.7928H201.815C202.757 19.7928 203.432 19.6788 203.839 19.4512C204.246 19.2237 204.449 18.8354 204.449 18.2863C204.449 17.7586 204.243 17.3834 203.831 17.1605C203.419 16.9379 202.811 16.8267 202.008 16.8267ZM201.863 14.7612C203.534 14.7612 204.813 15.0486 205.702 15.6231C206.59 16.1977 207.035 17.0905 207.035 18.3018C207.035 19.0579 206.856 19.6711 206.497 20.142C206.138 20.6134 205.621 20.9835 204.947 21.2525C205.172 21.5221 205.407 21.8301 205.654 22.1766C205.9 22.5236 206.144 22.886 206.384 23.2635C206.625 23.6417 206.858 24.035 207.083 24.4438C207.308 24.853 207.517 25.254 207.709 25.6473H204.909C204.704 25.2954 204.497 24.9384 204.288 24.576C204.078 24.2135 203.863 23.8616 203.643 23.52C203.423 23.1781 203.205 22.8547 202.99 22.5495C202.775 22.2439 202.56 21.9668 202.345 21.7184H201.109V25.6473H198.603V15.0409C199.149 14.9373 199.714 14.8647 200.298 14.8234C200.881 14.782 201.403 14.7612 201.863 14.7612Z" fill="#012583"/>
<path d="M213.826 19.2994C214.276 18.5665 214.705 17.8331 215.112 17.1002C215.519 16.3673 215.894 15.6289 216.238 14.8852H219C218.39 16.045 217.758 17.1682 217.105 18.2554C216.452 19.3423 215.761 20.4349 215.033 21.5318V25.6473H212.528V21.5631C211.799 20.4658 211.106 19.3682 210.448 18.2705C209.789 17.1736 209.155 16.045 208.545 14.8852H211.451C211.794 15.6289 212.163 16.3673 212.558 17.1002C212.954 17.8331 213.376 18.5665 213.826 19.2994Z" fill="#012583"/>
<path d="M170.504 14.819C170.947 15.7231 171.384 16.6608 171.815 17.6333C172.246 18.6054 172.656 19.567 173.043 20.519C173.431 21.4703 173.788 22.3813 174.113 23.2514C174.438 24.1215 174.719 24.8977 174.956 25.5812H172.193C171.985 24.958 171.753 24.2869 171.498 23.5686C171.243 22.8504 170.983 22.134 170.719 21.4208C170.455 20.7072 170.201 20.0237 169.959 19.37C169.716 18.7163 169.484 18.1518 169.262 17.6766C169.053 18.1487 168.824 18.7116 168.576 19.3654C168.329 20.0187 168.072 20.7022 167.808 21.4162C167.543 22.1294 167.284 22.8453 167.029 23.564C166.774 24.2822 166.541 24.9545 166.332 25.5812H163.665C163.914 24.8946 164.202 24.1172 164.526 23.2491C164.85 22.3805 165.205 21.4699 165.591 20.5175C165.976 19.5651 166.383 18.6023 166.811 17.629C167.239 16.6558 167.674 15.7192 168.115 14.819H170.504Z" fill="#012583"/>
<path d="M41.936 34.1744L41.936 34.1744C38.1378 30.7244 36.1766 25.8057 36.2418 19.9766C36.3055 14.2648 38.138 9.45793 41.5691 6.10137C44.7763 2.96365 49.3074 1.24643 54.3152 1.24643C57.8748 1.24643 61.2261 2.09466 64.004 3.70863L63.8519 3.97054L64.004 3.70864C66.9218 5.40405 69.1374 7.84713 70.5861 10.9633L70.7238 11.2595L70.418 11.3745L69.7156 11.6387L69.4527 11.7377L69.3342 11.4829C66.6949 5.80574 61.2365 2.5371 54.3152 2.5371C49.2807 2.5371 45.1414 4.25298 42.2451 7.27595C39.3472 10.3005 37.6687 14.66 37.6092 19.9905L37.6092 19.9905C37.5475 25.4877 39.3803 30.0612 42.8846 33.2443L42.6809 33.4685L42.8846 33.2443C45.8507 35.9386 49.9079 37.43 54.3152 37.43C61.0981 37.43 66.5098 34.3005 69.2045 28.8704L69.329 28.6196L69.5888 28.724L70.2841 29.0032L70.5882 29.1254L70.4425 29.419C68.9612 32.4039 66.7405 34.743 63.8463 36.3657C61.0941 37.9089 57.7976 38.7206 54.3152 38.7206C49.5675 38.7206 45.1688 37.1106 41.936 34.1744Z" fill="#012583" stroke="#012583" stroke-width="0.605809"/>
</svg>
